<svg xmlns="http://www.w3.org/2000/svg" xmlns:xlink="http://www.w3.org/1999/xlink" width="117" height="84" viewBox="0 0 117 84">
    <defs>
        <path id="a" d="M.4.045H14v46.273H.4z"/>
    </defs>
    <g fill="none" fill-rule="evenodd">
        <path fill="#FFF" d="M81.668 21.51c-3.855-.937-7.897-.735-11.687.434l-2.273.702a.476.476 0 0 1-.616-.457V8.89C67.045 4.168 63.828 0 59.135 0H53v58.344c0 3.618 2.942 6.577 6.535 6.577h7.797V42.233c0-4.519 3.678-8.163 8.168-8.093 4.117.063 7.422 3.44 7.422 7.584v16.383c0 3.807 3.067 6.893 6.85 6.893H98V42.572c0-1.542-.191-3.091-.551-4.615-1.943-8.212-7.689-14.478-15.781-16.446"/>
        <g transform="translate(103 19)">
            <mask id="b" fill="#fff">
                <use xlink:href="#a"/>
            </mask>
            <path fill="#FFF" d="M6.76.045C3.247.045.4 2.96.4 6.558v39.76h7.241c3.511 0 6.36-2.916 6.36-6.514V.044H6.758z" mask="url(#b)"/>
        </g>
        <path fill="#FFF" d="M109.016 14H117V4.96A4.96 4.96 0 0 0 112.039 0H103v7.985A6.015 6.015 0 0 0 109.016 14M23.638 52.753c-4.934 0-8.933-4.807-8.933-10.737s4-10.737 8.933-10.737 8.931 4.807 8.931 10.737-3.998 10.737-8.931 10.737M23.499 16C10.521 16 0 27.34 0 41.328c0 .37.008.735.024 1.1H0V84h8.246c4.249 0 7.695-3.45 7.695-7.708V65.317a21.947 21.947 0 0 0 7.558 1.34C36.48 66.656 47 55.316 47 41.326 47 27.34 36.478 16 23.5 16"/>
    </g>
</svg>
